HIERARCHY
ROOT Hips
{
	OFFSET 0.000000 0.000000 0.000000
	CHANNELS 6 Xposition Yposition Zposition Zrotation Yrotation Xrotation 
	JOINT LHipJoint
	{
		OFFSET 0.000000 0.000000 0.000000
		CHANNELS 3 Zrotation Yrotation Xrotation
		JOINT LeftUpLeg
		{
			OFFSET 1.363060 -1.794630 0.839290
			CHANNELS 3 Zrotation Yrotation Xrotation
			JOINT LeftLeg
			{
				OFFSET 2.448110 -6.726130 0.000000
				CHANNELS 3 Zrotation Yrotation Xrotation
				JOINT LeftFoot
				{
					OFFSET 2.562200 -7.039590 0.000000
					CHANNELS 3 Zrotation Yrotation Xrotation
					JOINT LeftToeBase
					{
						OFFSET 0.157640 -0.433110 2.322550
						CHANNELS 3 Zrotation Yrotation Xrotation
						End Site
						{
							OFFSET 0.000000 0.000000 0.000000
						}
					}
				}
			}
		}
	}
	JOINT RHipJoint
	{
		OFFSET 0.000000 0.000000 0.000000
		CHANNELS 3 Zrotation Yrotation Xrotation
		JOINT RightUpLeg
		{
			OFFSET -1.305520 -1.794630 0.839290
			CHANNELS 3 Zrotation Yrotation Xrotation
			JOINT RightLeg
			{
				OFFSET -2.542530 -6.985550 0.000000
				CHANNELS 3 Zrotation Yrotation Xrotation
				JOINT RightFoot
				{
					OFFSET -2.568260 -7.056230 0.000000
					CHANNELS 3 Zrotation Yrotation Xrotation
					JOINT RightToeBase
					{
						OFFSET -0.164730 -0.452590 2.363150
						CHANNELS 3 Zrotation Yrotation Xrotation
						End Site
						{
							OFFSET 0.000000 0.000000 0.000000
						}
					}
				}
			}
		}
	}
	JOINT LowerBack
	{
		OFFSET 0.000000 0.000000 0.000000
		CHANNELS 3 Zrotation Yrotation Xrotation
		JOINT Spine
		{
			OFFSET 0.028270 2.035590 -0.193380
			CHANNELS 3 Zrotation Yrotation Xrotation
			JOINT Spine1
			{
				OFFSET 0.056720 2.048850 -0.042750
				CHANNELS 3 Zrotation Yrotation Xrotation
				JOINT Neck
				{
					OFFSET 0.000000 0.000000 0.000000
					CHANNELS 3 Zrotation Yrotation Xrotation
					JOINT Neck1
					{
						OFFSET -0.054170 1.746240 0.172020
						CHANNELS 3 Zrotation Yrotation Xrotation
						JOINT Head
						{
							OFFSET 0.104070 1.761360 -0.123970
							CHANNELS 3 Zrotation Yrotation Xrotation
							End Site
							{
								OFFSET 0.000000 0.000000 0.000000
							}
						}
					}
				}
				JOINT LeftShoulder
				{
					OFFSET 0.000000 0.000000 0.000000
					CHANNELS 3 Zrotation Yrotation Xrotation
					JOINT LeftArm
					{
						OFFSET 3.362410 1.200890 -0.311210
						CHANNELS 3 Zrotation Yrotation Xrotation
						JOINT LeftForeArm
						{
							OFFSET 4.983000 -0.000000 -0.000000
							CHANNELS 3 Zrotation Yrotation Xrotation
							JOINT LeftHand
							{
								OFFSET 3.483560 -0.000000 -0.000000
								CHANNELS 3 Zrotation Yrotation Xrotation
								JOINT LeftFingerBase
								{
									OFFSET 0.000000 0.000000 0.000000
									CHANNELS 3 Zrotation Yrotation Xrotation
									JOINT LeftHandIndex1
									{
										OFFSET 0.715260 -0.000000 -0.000000
										CHANNELS 3 Zrotation Yrotation Xrotation
										End Site
										{
											OFFSET 0.000000 0.000000 0.000000
										}
									}
								}
								JOINT LThumb
								{
									OFFSET 0.000000 0.000000 0.000000
									CHANNELS 3 Zrotation Yrotation Xrotation
									End Site
									{
										OFFSET 0.000000 0.000000 0.000000
									}
								}
							}
						}
					}
				}
				JOINT RightShoulder
				{
					OFFSET 0.000000 0.000000 0.000000
					CHANNELS 3 Zrotation Yrotation Xrotation
					JOINT RightArm
					{
						OFFSET -3.136600 1.374050 -0.404650
						CHANNELS 3 Zrotation Yrotation Xrotation
						JOINT RightForeArm
						{
							OFFSET -5.241900 -0.000000 -0.000000
							CHANNELS 3 Zrotation Yrotation Xrotation
							JOINT RightHand
							{
								OFFSET -3.444170 -0.000000 -0.000000
								CHANNELS 3 Zrotation Yrotation Xrotation
								JOINT RightFingerBase
								{
									OFFSET 0.000000 0.000000 0.000000
									CHANNELS 3 Zrotation Yrotation Xrotation
									JOINT RightHandIndex1
									{
										OFFSET -0.622530 -0.000000 -0.000000
										CHANNELS 3 Zrotation Yrotation Xrotation
										End Site
										{
											OFFSET 0.000000 0.000000 0.000000
										}
									}
								}
								JOINT RThumb
								{
									OFFSET 0.000000 0.000000 0.000000
									CHANNELS 3 Zrotation Yrotation Xrotation
									End Site
									{
										OFFSET 0.000000 0.000000 0.000000
									}
								}
							}
						}
					}
				}
			}
		}
	}
}
MOTION
Frames: 7
Frame Time: 0.008333
-9.977892 17.931830 0.462532 -126.381848 -79.793120 121.527949 -2.416229 2.468584 2.402875 -3.265289 5.828049 -10.506693 2.164598 11.483554 34.031791 -1.801457 8.385821 0.875616 0.150300 -2.498500 -6.885400 3.316407 -2.970842 3.102793 15.165310 3.466130 -3.947849 1.669103 -7.447753 21.563462 2.876975 -10.572805 0.720340 -0.003000 0.354600 -0.974200 2.316004 3.462297 10.041897 1.667664 4.506929 4.369343 -2.522087 2.352502 -0.463859 5.151201 -1.216591 -9.529457 3.030143 -2.081773 26.671882 -2.253300 0.314700 7.955900 -0.752499 -4.617190 0.934457 -74.058471 13.985945 26.676855 42.717780 -47.343106 -24.442586 0.688782 -1.813611 -4.162312 6.597317 6.530188 0.888100 -7.125000 0.000000 0.000000 -17.701300 37.860300 3.233900 1.831097 7.617216 2.646748 73.673354 -8.387258 26.692459 -34.656793 40.569630 -14.455338 0.937547 0.235967 7.497902 -8.950459 -20.564722 3.539100 7.125000 0.000000 0.000000 18.570800 -50.196700 -2.453000 
-10.006638 17.913424 0.426547 -127.333751 -79.125641 122.152718 -2.272706 2.601355 2.442648 -2.707471 5.762651 -10.112669 2.296036 11.541816 34.353856 -1.724292 8.230328 0.665561 0.166900 -2.632300 -7.256600 3.271325 -3.044110 3.146649 15.727688 3.186881 -3.541100 1.718546 -7.359350 21.409048 2.595125 -9.853608 0.892632 -0.002700 0.334400 -0.918700 2.629665 3.476851 9.810223 1.826225 4.566013 4.361586 -2.475074 2.378136 -0.365432 5.351857 -1.135047 -9.471576 3.136326 -2.032925 26.815458 -2.251700 0.371700 7.992200 -0.726072 -4.598024 0.933166 -74.189222 14.298989 26.747503 43.236682 -47.614597 -24.897855 0.698140 -1.811043 -4.093851 6.513784 6.173368 0.836800 -7.125000 0.000000 0.000000 -17.690300 37.509300 3.390700 1.834160 7.606660 2.657940 73.509566 -8.248390 27.661727 -35.417456 41.084336 -14.928174 0.910778 0.245223 7.264658 -8.729734 -20.213444 3.394400 7.125000 0.000000 0.000000 18.648000 -49.830200 -2.291300 
-10.037867 17.894191 0.392423 -128.133274 -78.518345 122.610480 -2.143264 2.735923 2.491866 -2.216012 5.618240 -9.635796 2.401223 11.578396 34.601698 -1.701841 8.181079 0.375444 0.179400 -2.728300 -7.523100 3.220031 -3.122413 3.190259 16.237886 2.898675 -3.109193 1.758526 -7.275644 21.276349 2.323411 -9.146176 1.012870 -0.002300 0.312200 -0.857900 2.906415 3.476068 9.558874 1.975881 4.597918 4.359160 -2.412024 2.390487 -0.255522 5.522447 -1.054145 -9.435557 3.278192 -1.993038 27.020005 -2.233900 0.428700 8.051000 -0.701689 -4.576324 0.932786 -74.280581 14.597298 26.898483 43.754232 -47.882504 -25.354202 0.708010 -1.809308 -4.039679 6.385687 5.795893 0.778700 -7.125000 0.000000 0.000000 -17.712000 37.136500 3.564200 1.837889 7.598234 2.670195 73.342324 -8.128991 28.597543 -36.213210 41.610249 -15.431632 0.882370 0.254158 7.051990 -8.502987 -19.842577 3.246800 7.125000 0.000000 0.000000 18.725100 -49.444700 -2.119000 
-10.071473 17.874234 0.360368 -128.823637 -77.973687 122.948414 -2.029582 2.870417 2.550795 -1.796775 5.397030 -9.080849 2.478176 11.592838 34.772412 -1.733857 8.238086 0.005676 0.186900 -2.784100 -7.678200 3.163662 -3.203418 3.231871 16.688708 2.596386 -2.666625 1.787387 -7.201253 21.176623 2.058318 -8.442260 1.085415 -0.002000 0.288200 -0.791800 3.154962 3.459947 9.285629 2.114064 4.603677 4.358962 -2.340807 2.390560 -0.134490 5.686259 -0.983334 -9.391273 3.419369 -1.967735 27.254157 -2.215500 0.479500 8.116700 -0.679473 -4.552673 0.933447 -74.327104 14.882169 27.138733 44.274342 -48.148777 -25.814552 0.718231 -1.808422 -4.000321 6.218146 5.401203 0.715700 -7.125000 0.000000 0.000000 -17.762800 36.745600 3.752900 1.841604 7.591239 2.683015 73.177800 -8.036262 29.488043 -37.048890 42.148856 -15.970303 0.852539 0.259650 6.861813 -8.327836 -19.438978 3.114200 7.125000 0.000000 0.000000 18.741300 -49.033200 -1.925700 
-10.107148 17.853759 0.330690 -129.468552 -77.504484 123.237632 -1.934598 3.000623 2.617839 -1.465359 5.108453 -8.460862 2.525466 11.586515 34.867455 -1.819126 8.399051 -0.438501 0.188800 -2.798600 -7.718500 3.104739 -3.285259 3.270679 17.061906 2.283172 -2.230351 1.804362 -7.138882 21.114792 1.801611 -7.748475 1.118337 -0.001700 0.264700 -0.727400 3.358690 3.429964 8.981483 2.238726 4.583251 4.359920 -2.254911 2.378294 -0.000418 5.821014 -0.916692 -9.352422 3.577891 -1.951357 27.525333 -2.186600 0.527300 8.194400 -0.659503 -4.527540 0.935355 -74.328671 15.147513 27.466376 44.799541 -48.414667 -26.281793 0.729094 -1.808231 -3.974568 5.994727 4.973604 0.645500 -7.125000 0.000000 0.000000 -17.852100 36.321300 3.967200 1.845229 7.585427 2.696360 73.015426 -7.972329 30.330625 -37.929864 42.701746 -16.549180 0.820986 0.264363 6.682228 -8.157262 -19.010871 2.981600 7.125000 0.000000 0.000000 18.746300 -48.598700 -1.719800 
-10.144788 17.833285 0.303495 -130.078438 -77.089043 123.498147 -1.855124 3.126352 2.691960 -1.207802 4.766640 -7.790861 2.546627 11.561478 34.894504 -1.951247 8.652724 -0.948166 0.185000 -2.770200 -7.639500 3.045263 -3.365728 3.304907 17.375090 1.973060 -1.804844 1.811032 -7.089499 21.089647 1.555893 -7.073585 1.117971 -0.001400 0.245400 -0.674200 3.548080 3.390462 8.640776 2.351808 4.545883 4.360214 -2.169709 2.359044 0.151842 5.937221 -0.858160 -9.308941 3.734159 -1.944701 27.813701 -2.155200 0.569600 8.275900 -0.641404 -4.501328 0.938748 -74.285459 15.391716 27.881721 45.342748 -48.686307 -26.768819 0.741243 -1.809319 -3.956321 5.671563 4.535336 0.566500 -7.125000 0.000000 0.000000 -18.021200 35.882600 4.210300 1.848348 7.580152 2.709877 72.860121 -7.943054 31.112531 -38.862870 43.271147 -17.175482 0.788860 0.265552 6.512825 -8.051507 -18.565402 2.870100 7.125000 0.000000 0.000000 18.686300 -48.154000 -1.503000 
-10.184289 17.812707 0.279091 -130.635239 -76.718333 123.716107 -1.788473 3.247063 2.771215 -1.013352 4.387650 -7.088082 2.545284 11.520476 34.862493 -2.122631 8.985355 -1.516454 0.175300 -2.696900 -7.436000 2.986025 -3.443213 3.334155 17.639527 1.656673 -1.400085 1.808479 -7.052353 21.098445 1.319637 -6.415366 1.094233 -0.001300 0.229600 -0.631000 3.737467 3.340010 8.258482 2.455292 4.490770 4.358610 -2.090260 2.332932 0.325183 6.042709 -0.805392 -9.255808 3.873727 -1.940911 28.110588 -2.126500 0.608200 8.357800 -0.625062 -4.473943 0.943749 -74.198474 15.614463 28.379490 45.917162 -48.968726 -27.286727 0.754282 -1.811275 -3.954276 5.264899 4.077426 0.482400 -7.125000 0.000000 0.000000 -18.252900 35.422700 4.484300 1.850944 7.575327 2.723548 72.709130 -7.948076 31.838515 -39.851657 43.856862 -17.853846 0.756735 0.267022 6.335361 -7.951158 -18.132351 2.764000 7.125000 0.000000 0.000000 18.629800 -47.722100 -1.293800 
